<?xml version="1.0" standalone="no"?>
<!DOCTYPE svg PUBLIC "-//W3C//DTD SVG 20010904//EN"
 "http://www.w3.org/TR/2001/REC-SVG-20010904/DTD/svg10.dtd">
<svg version="1.0" xmlns="http://www.w3.org/2000/svg"
 width="512.000000pt" height="512.000000pt" viewBox="0 0 512.000000 512.000000"
 preserveAspectRatio="xMidYMid meet">
<metadata>
Created by potrace 1.14, written by Peter Selinger 2001-2017
</metadata>
<g transform="translate(0.000000,512.000000) scale(0.100000,-0.100000)"
fill="#000000" stroke="none">
<path d="M0 2560 l0 -2560 2560 0 2560 0 0 2560 0 2560 -2560 0 -2560 0 0
-2560z m3753 1987 c14 -9 31 -25 36 -36 6 -10 51 -277 100 -592 94 -598 121
-787 121 -844 0 -45 17 -53 25 -13 30 139 493 1419 525 1453 39 41 65 46 261
43 l185 -3 -420 -1017 -419 -1018 -188 0 c-103 0 -199 4 -212 9 -15 6 -29 23
-36 43 -13 42 -207 1208 -217 1306 -3 39 -9 72 -13 72 -3 0 -16 -28 -28 -62
-25 -72 -518 -1268 -540 -1311 -25 -49 -63 -57 -262 -57 -162 0 -180 2 -185
18 -3 9 -79 458 -170 997 -91 539 -168 990 -171 1003 l-5 22 203 0 c196 0 205
-1 238 -23 23 -15 37 -34 42 -57 17 -75 127 -1144 133 -1293 4 -87 10 -154 14
-150 4 4 28 64 55 133 74 193 515 1281 535 1320 35 66 77 80 241 77 99 -2 131
-6 152 -20z m-1653 -2442 l0 -1485 -147 0 c-248 0 -258 8 -303 234 l-12 58
-56 -54 c-165 -160 -325 -239 -519 -257 -425 -38 -716 216 -815 711 -18 94
-22 147 -22 313 -1 173 2 214 22 304 52 230 131 390 261 525 181 188 408 270
679 245 136 -12 264 -65 367 -150 l50 -41 2 528 c2 291 5 535 8 542 3 9 62 12
245 12 l240 0 0 -1485z"/>
<path d="M1103 2325 c-220 -48 -346 -237 -374 -560 -18 -221 13 -462 77 -587
65 -130 186 -198 349 -198 144 0 262 51 381 164 l74 71 0 471 0 471 -55 52
c-63 60 -134 96 -232 116 -83 18 -138 18 -220 0z"/>
</g>
</svg>
